<mxfile host="app.diagrams.net" modified="2020-11-19T07:13:02.254Z" agent="5.0 (Windows NT 10.0; Win64; x64) AppleWebKit/537.36 (KHTML, like Gecko) Chrome/86.0.4240.198 Safari/537.36" etag="-0HJq5tu8FqSlSNUMWZF" version="13.9.9" type="github">
  <diagram name="Page-1" id="0783ab3e-0a74-02c8-0abd-f7b4e66b4bec">
    <mxGraphModel dx="1422" dy="1862" grid="1" gridSize="10" guides="1" tooltips="1" connect="1" arrows="1" fold="1" page="1" pageScale="1" pageWidth="850" pageHeight="1100" background="#ffffff" math="0" shadow="0">
      <root>
        <mxCell id="0" />
        <mxCell id="1" parent="0" />
        <mxCell id="1c1d494c118603dd-1" value="PMS" style="swimlane;html=1;childLayout=stackLayout;startSize=20;rounded=0;shadow=0;comic=0;labelBackgroundColor=none;strokeWidth=1;fontFamily=Verdana;fontSize=12;align=center;fillColor=#dae8fc;strokeColor=#6c8ebf;" parent="1" vertex="1">
          <mxGeometry x="40" y="20" width="1000" height="1010" as="geometry" />
        </mxCell>
        <mxCell id="1c1d494c118603dd-2" value="销售" style="swimlane;html=1;startSize=20;" parent="1c1d494c118603dd-1" vertex="1">
          <mxGeometry y="20" width="300" height="990" as="geometry" />
        </mxCell>
        <mxCell id="IT9iss0If3yiSqDpqN_8-192" style="edgeStyle=orthogonalEdgeStyle;rounded=0;orthogonalLoop=1;jettySize=auto;html=1;entryX=0.5;entryY=0;entryDx=0;entryDy=0;exitX=0.5;exitY=1;exitDx=0;exitDy=0;exitPerimeter=0;" edge="1" parent="1c1d494c118603dd-2" source="IT9iss0If3yiSqDpqN_8-204" target="IT9iss0If3yiSqDpqN_8-188">
          <mxGeometry relative="1" as="geometry">
            <mxPoint x="180" y="90" as="sourcePoint" />
          </mxGeometry>
        </mxCell>
        <mxCell id="IT9iss0If3yiSqDpqN_8-188" value="填写借货申请表单" style="rounded=1;whiteSpace=wrap;html=1;shadow=0;comic=0;labelBackgroundColor=none;strokeWidth=1;fontFamily=Verdana;fontSize=12;align=center;arcSize=50;" vertex="1" parent="1c1d494c118603dd-2">
          <mxGeometry x="130" y="120" width="100" height="30" as="geometry" />
        </mxCell>
        <mxCell id="IT9iss0If3yiSqDpqN_8-204" value="借货流程" style="strokeWidth=2;html=1;shape=mxgraph.flowchart.start_2;whiteSpace=wrap;" vertex="1" parent="1c1d494c118603dd-2">
          <mxGeometry x="157.5" y="40" width="45" height="40" as="geometry" />
        </mxCell>
        <mxCell id="IT9iss0If3yiSqDpqN_8-205" value="通知：提示售前测试电子流" style="rounded=1;whiteSpace=wrap;html=1;absoluteArcSize=1;arcSize=14;strokeWidth=2;" vertex="1" parent="1c1d494c118603dd-2">
          <mxGeometry x="60" y="370" width="160" height="40" as="geometry" />
        </mxCell>
        <mxCell id="IT9iss0If3yiSqDpqN_8-225" style="edgeStyle=orthogonalEdgeStyle;rounded=0;orthogonalLoop=1;jettySize=auto;html=1;entryX=0;entryY=0.5;entryDx=0;entryDy=0;dashed=1;" edge="1" parent="1c1d494c118603dd-2" source="IT9iss0If3yiSqDpqN_8-223" target="IT9iss0If3yiSqDpqN_8-188">
          <mxGeometry relative="1" as="geometry" />
        </mxCell>
        <mxCell id="IT9iss0If3yiSqDpqN_8-223" value="1，如选择总代库房，LMS-总代提供库房选择&lt;br&gt;2，总代库管维护特殊产品列表，特殊产品提示总代Demo库&lt;br&gt;3，（二期）产品地址自动匹配库房&lt;br&gt;4，若库房无货则不可申请" style="shape=note;whiteSpace=wrap;html=1;backgroundOutline=1;darkOpacity=0.05;" vertex="1" parent="1c1d494c118603dd-2">
          <mxGeometry x="20" y="40" width="90" height="230" as="geometry" />
        </mxCell>
        <mxCell id="IT9iss0If3yiSqDpqN_8-251" value="借货续借流程" style="strokeWidth=2;html=1;shape=mxgraph.flowchart.start_2;whiteSpace=wrap;" vertex="1" parent="1c1d494c118603dd-2">
          <mxGeometry x="137.5" y="630" width="92.5" height="70" as="geometry" />
        </mxCell>
        <mxCell id="IT9iss0If3yiSqDpqN_8-253" style="edgeStyle=orthogonalEdgeStyle;rounded=0;orthogonalLoop=1;jettySize=auto;html=1;entryX=0.5;entryY=1;entryDx=0;entryDy=0;entryPerimeter=0;dashed=1;" edge="1" parent="1c1d494c118603dd-2" source="IT9iss0If3yiSqDpqN_8-252" target="IT9iss0If3yiSqDpqN_8-251">
          <mxGeometry relative="1" as="geometry" />
        </mxCell>
        <mxCell id="IT9iss0If3yiSqDpqN_8-252" value="续借流程同现有续借流程" style="shape=note;whiteSpace=wrap;html=1;backgroundOutline=1;darkOpacity=0.05;" vertex="1" parent="1c1d494c118603dd-2">
          <mxGeometry x="10" y="615" width="80" height="100" as="geometry" />
        </mxCell>
        <mxCell id="IT9iss0If3yiSqDpqN_8-287" style="edgeStyle=orthogonalEdgeStyle;rounded=0;orthogonalLoop=1;jettySize=auto;html=1;entryX=0.5;entryY=0;entryDx=0;entryDy=0;" edge="1" parent="1c1d494c118603dd-2" source="IT9iss0If3yiSqDpqN_8-285" target="IT9iss0If3yiSqDpqN_8-286">
          <mxGeometry relative="1" as="geometry" />
        </mxCell>
        <mxCell id="IT9iss0If3yiSqDpqN_8-285" value="退货流程" style="strokeWidth=2;html=1;shape=mxgraph.flowchart.start_2;whiteSpace=wrap;" vertex="1" parent="1c1d494c118603dd-2">
          <mxGeometry x="75" y="740" width="70" height="50" as="geometry" />
        </mxCell>
        <mxCell id="IT9iss0If3yiSqDpqN_8-286" value="选择退货订单，填写基本信息" style="rounded=1;whiteSpace=wrap;html=1;absoluteArcSize=1;arcSize=14;strokeWidth=2;" vertex="1" parent="1c1d494c118603dd-2">
          <mxGeometry x="30" y="810" width="160" height="40" as="geometry" />
        </mxCell>
        <mxCell id="1c1d494c118603dd-3" value="部门主管" style="swimlane;html=1;startSize=20;" parent="1c1d494c118603dd-1" vertex="1">
          <mxGeometry x="300" y="20" width="250" height="990" as="geometry" />
        </mxCell>
        <mxCell id="IT9iss0If3yiSqDpqN_8-190" value="审批" style="strokeWidth=2;html=1;shape=mxgraph.flowchart.decision;whiteSpace=wrap;" vertex="1" parent="1c1d494c118603dd-3">
          <mxGeometry x="88" y="200" width="95" height="40" as="geometry" />
        </mxCell>
        <mxCell id="IT9iss0If3yiSqDpqN_8-284" value="" style="endArrow=none;html=1;exitX=0.975;exitY=-0.023;exitDx=0;exitDy=0;exitPerimeter=0;dashed=1;" edge="1" parent="1c1d494c118603dd-3">
          <mxGeometry width="50" height="50" relative="1" as="geometry">
            <mxPoint x="-300" y="860.0000000000002" as="sourcePoint" />
            <mxPoint x="891" y="862.99" as="targetPoint" />
          </mxGeometry>
        </mxCell>
        <mxCell id="IT9iss0If3yiSqDpqN_8-1" value="销管" style="swimlane;html=1;startSize=20;" vertex="1" parent="1c1d494c118603dd-1">
          <mxGeometry x="550" y="20" width="250" height="990" as="geometry">
            <mxRectangle x="500" y="20" width="30" height="970" as="alternateBounds" />
          </mxGeometry>
        </mxCell>
        <mxCell id="IT9iss0If3yiSqDpqN_8-195" value="审批" style="strokeWidth=2;html=1;shape=mxgraph.flowchart.decision;whiteSpace=wrap;" vertex="1" parent="IT9iss0If3yiSqDpqN_8-1">
          <mxGeometry x="70" y="270" width="95" height="40" as="geometry" />
        </mxCell>
        <mxCell id="1c1d494c118603dd-4" value="总代库管" style="swimlane;html=1;startSize=20;" parent="1c1d494c118603dd-1" vertex="1">
          <mxGeometry x="800" y="20" width="200" height="990" as="geometry" />
        </mxCell>
        <mxCell id="IT9iss0If3yiSqDpqN_8-206" value="知会流程" style="rounded=1;whiteSpace=wrap;html=1;absoluteArcSize=1;arcSize=14;strokeWidth=2;" vertex="1" parent="1c1d494c118603dd-4">
          <mxGeometry x="30" y="360" width="150" height="40" as="geometry" />
        </mxCell>
        <mxCell id="IT9iss0If3yiSqDpqN_8-289" value="通知库管收货信息" style="rounded=1;whiteSpace=wrap;html=1;absoluteArcSize=1;arcSize=14;strokeWidth=2;" vertex="1" parent="1c1d494c118603dd-4">
          <mxGeometry x="30" y="810" width="150" height="40" as="geometry" />
        </mxCell>
        <mxCell id="IT9iss0If3yiSqDpqN_8-193" style="edgeStyle=orthogonalEdgeStyle;rounded=0;orthogonalLoop=1;jettySize=auto;html=1;entryX=0.5;entryY=0;entryDx=0;entryDy=0;entryPerimeter=0;" edge="1" parent="1c1d494c118603dd-1" source="IT9iss0If3yiSqDpqN_8-188" target="IT9iss0If3yiSqDpqN_8-190">
          <mxGeometry relative="1" as="geometry" />
        </mxCell>
        <mxCell id="IT9iss0If3yiSqDpqN_8-198" value="&lt;br&gt;" style="edgeLabel;html=1;align=center;verticalAlign=middle;resizable=0;points=[];" vertex="1" connectable="0" parent="IT9iss0If3yiSqDpqN_8-193">
          <mxGeometry x="0.6661" y="2" relative="1" as="geometry">
            <mxPoint as="offset" />
          </mxGeometry>
        </mxCell>
        <mxCell id="IT9iss0If3yiSqDpqN_8-197" style="edgeStyle=orthogonalEdgeStyle;rounded=0;orthogonalLoop=1;jettySize=auto;html=1;entryX=0.5;entryY=0;entryDx=0;entryDy=0;entryPerimeter=0;" edge="1" parent="1c1d494c118603dd-1" source="IT9iss0If3yiSqDpqN_8-190" target="IT9iss0If3yiSqDpqN_8-195">
          <mxGeometry relative="1" as="geometry" />
        </mxCell>
        <mxCell id="IT9iss0If3yiSqDpqN_8-199" value="通过" style="edgeLabel;html=1;align=center;verticalAlign=middle;resizable=0;points=[];" vertex="1" connectable="0" parent="IT9iss0If3yiSqDpqN_8-197">
          <mxGeometry x="0.1087" y="1" relative="1" as="geometry">
            <mxPoint as="offset" />
          </mxGeometry>
        </mxCell>
        <mxCell id="IT9iss0If3yiSqDpqN_8-200" style="edgeStyle=orthogonalEdgeStyle;rounded=0;orthogonalLoop=1;jettySize=auto;html=1;entryX=0.5;entryY=1;entryDx=0;entryDy=0;" edge="1" parent="1c1d494c118603dd-1" source="IT9iss0If3yiSqDpqN_8-190" target="IT9iss0If3yiSqDpqN_8-188">
          <mxGeometry relative="1" as="geometry" />
        </mxCell>
        <mxCell id="IT9iss0If3yiSqDpqN_8-201" value="驳回" style="edgeLabel;html=1;align=center;verticalAlign=middle;resizable=0;points=[];" vertex="1" connectable="0" parent="IT9iss0If3yiSqDpqN_8-200">
          <mxGeometry x="-0.4346" y="-1" relative="1" as="geometry">
            <mxPoint as="offset" />
          </mxGeometry>
        </mxCell>
        <mxCell id="IT9iss0If3yiSqDpqN_8-202" style="edgeStyle=orthogonalEdgeStyle;rounded=0;orthogonalLoop=1;jettySize=auto;html=1;entryX=0.5;entryY=1;entryDx=0;entryDy=0;" edge="1" parent="1c1d494c118603dd-1" source="IT9iss0If3yiSqDpqN_8-195" target="IT9iss0If3yiSqDpqN_8-188">
          <mxGeometry relative="1" as="geometry" />
        </mxCell>
        <mxCell id="IT9iss0If3yiSqDpqN_8-203" value="驳回" style="edgeLabel;html=1;align=center;verticalAlign=middle;resizable=0;points=[];" vertex="1" connectable="0" parent="IT9iss0If3yiSqDpqN_8-202">
          <mxGeometry x="-0.5795" y="1" relative="1" as="geometry">
            <mxPoint as="offset" />
          </mxGeometry>
        </mxCell>
        <mxCell id="IT9iss0If3yiSqDpqN_8-207" style="edgeStyle=orthogonalEdgeStyle;rounded=0;orthogonalLoop=1;jettySize=auto;html=1;entryX=0.5;entryY=0;entryDx=0;entryDy=0;" edge="1" parent="1c1d494c118603dd-1" source="IT9iss0If3yiSqDpqN_8-195" target="IT9iss0If3yiSqDpqN_8-205">
          <mxGeometry relative="1" as="geometry">
            <Array as="points">
              <mxPoint x="668" y="350" />
              <mxPoint x="140" y="350" />
            </Array>
          </mxGeometry>
        </mxCell>
        <mxCell id="IT9iss0If3yiSqDpqN_8-208" value="通过" style="edgeLabel;html=1;align=center;verticalAlign=middle;resizable=0;points=[];" vertex="1" connectable="0" parent="IT9iss0If3yiSqDpqN_8-207">
          <mxGeometry x="0.0094" y="-1" relative="1" as="geometry">
            <mxPoint x="1" as="offset" />
          </mxGeometry>
        </mxCell>
        <mxCell id="IT9iss0If3yiSqDpqN_8-209" style="edgeStyle=orthogonalEdgeStyle;rounded=0;orthogonalLoop=1;jettySize=auto;html=1;entryX=0.5;entryY=0;entryDx=0;entryDy=0;" edge="1" parent="1c1d494c118603dd-1" source="IT9iss0If3yiSqDpqN_8-195" target="IT9iss0If3yiSqDpqN_8-206">
          <mxGeometry relative="1" as="geometry" />
        </mxCell>
        <mxCell id="IT9iss0If3yiSqDpqN_8-210" value="通过" style="edgeLabel;html=1;align=center;verticalAlign=middle;resizable=0;points=[];" vertex="1" connectable="0" parent="IT9iss0If3yiSqDpqN_8-209">
          <mxGeometry x="0.2157" relative="1" as="geometry">
            <mxPoint as="offset" />
          </mxGeometry>
        </mxCell>
        <mxCell id="IT9iss0If3yiSqDpqN_8-288" style="edgeStyle=orthogonalEdgeStyle;rounded=0;orthogonalLoop=1;jettySize=auto;html=1;entryX=0;entryY=0.5;entryDx=0;entryDy=0;" edge="1" parent="1c1d494c118603dd-1" source="IT9iss0If3yiSqDpqN_8-286" target="IT9iss0If3yiSqDpqN_8-289">
          <mxGeometry relative="1" as="geometry">
            <mxPoint x="870" y="850" as="targetPoint" />
          </mxGeometry>
        </mxCell>
        <mxCell id="IT9iss0If3yiSqDpqN_8-105" value="" style="shape=table;html=1;whiteSpace=wrap;startSize=0;container=1;collapsible=0;childLayout=tableLayout;" vertex="1" parent="1">
          <mxGeometry y="-20" width="1580" height="40" as="geometry" />
        </mxCell>
        <mxCell id="IT9iss0If3yiSqDpqN_8-106" value="" style="shape=partialRectangle;html=1;whiteSpace=wrap;collapsible=0;dropTarget=0;pointerEvents=0;fillColor=none;top=0;left=0;bottom=0;right=0;points=[[0,0.5],[1,0.5]];portConstraint=eastwest;" vertex="1" parent="IT9iss0If3yiSqDpqN_8-105">
          <mxGeometry width="1580" height="40" as="geometry" />
        </mxCell>
        <mxCell id="IT9iss0If3yiSqDpqN_8-107" value="&lt;span style=&quot;font-family: &amp;#34;verdana&amp;#34; ; font-weight: 700&quot;&gt;总代借货流程&lt;/span&gt;" style="shape=partialRectangle;html=1;whiteSpace=wrap;connectable=0;overflow=hidden;fillColor=none;top=0;left=0;bottom=0;right=0;" vertex="1" parent="IT9iss0If3yiSqDpqN_8-106">
          <mxGeometry width="1580" height="40" as="geometry" />
        </mxCell>
        <mxCell id="IT9iss0If3yiSqDpqN_8-109" value="LMS" style="swimlane;html=1;childLayout=stackLayout;startSize=20;rounded=0;shadow=0;comic=0;labelBackgroundColor=none;strokeWidth=1;fontFamily=Verdana;fontSize=12;align=center;fillColor=#f5f5f5;strokeColor=#666666;fontColor=#333333;" vertex="1" parent="1">
          <mxGeometry x="1040" y="20" width="350" height="1010" as="geometry" />
        </mxCell>
        <mxCell id="IT9iss0If3yiSqDpqN_8-110" value="总代库管" style="swimlane;html=1;startSize=20;" vertex="1" parent="IT9iss0If3yiSqDpqN_8-109">
          <mxGeometry y="20" width="190" height="990" as="geometry" />
        </mxCell>
        <mxCell id="IT9iss0If3yiSqDpqN_8-215" style="edgeStyle=orthogonalEdgeStyle;rounded=0;orthogonalLoop=1;jettySize=auto;html=1;entryX=0.5;entryY=0;entryDx=0;entryDy=0;entryPerimeter=0;" edge="1" parent="IT9iss0If3yiSqDpqN_8-110" source="IT9iss0If3yiSqDpqN_8-211" target="IT9iss0If3yiSqDpqN_8-214">
          <mxGeometry relative="1" as="geometry" />
        </mxCell>
        <mxCell id="IT9iss0If3yiSqDpqN_8-211" value="&lt;font color=&quot;#ff0000&quot;&gt;库存手动操作？条码级别？&lt;/font&gt;" style="rounded=1;whiteSpace=wrap;html=1;absoluteArcSize=1;arcSize=14;strokeWidth=2;" vertex="1" parent="IT9iss0If3yiSqDpqN_8-110">
          <mxGeometry x="30" y="355" width="150" height="50" as="geometry" />
        </mxCell>
        <mxCell id="IT9iss0If3yiSqDpqN_8-214" value="借货流程结束" style="strokeWidth=2;html=1;shape=mxgraph.flowchart.terminator;whiteSpace=wrap;" vertex="1" parent="IT9iss0If3yiSqDpqN_8-110">
          <mxGeometry x="55" y="490" width="100" height="40" as="geometry" />
        </mxCell>
        <mxCell id="IT9iss0If3yiSqDpqN_8-227" style="edgeStyle=orthogonalEdgeStyle;rounded=0;orthogonalLoop=1;jettySize=auto;html=1;entryX=0.547;entryY=-0.1;entryDx=0;entryDy=0;entryPerimeter=0;dashed=1;" edge="1" parent="IT9iss0If3yiSqDpqN_8-110" source="IT9iss0If3yiSqDpqN_8-226" target="IT9iss0If3yiSqDpqN_8-211">
          <mxGeometry relative="1" as="geometry" />
        </mxCell>
        <mxCell id="IT9iss0If3yiSqDpqN_8-226" value="手动增删改查负责库存中的产品列表，" style="shape=note;whiteSpace=wrap;html=1;backgroundOutline=1;darkOpacity=0.05;" vertex="1" parent="IT9iss0If3yiSqDpqN_8-110">
          <mxGeometry x="70" y="150" width="80" height="140" as="geometry" />
        </mxCell>
        <mxCell id="IT9iss0If3yiSqDpqN_8-290" value="手动维护库存产品列表，回库信息（&lt;font color=&quot;#ff3333&quot;&gt;回库，检查等信息是否需要写回PMS&lt;/font&gt;）" style="rounded=1;whiteSpace=wrap;html=1;absoluteArcSize=1;arcSize=14;strokeWidth=2;" vertex="1" parent="IT9iss0If3yiSqDpqN_8-110">
          <mxGeometry x="20" y="800" width="150" height="60" as="geometry" />
        </mxCell>
        <mxCell id="IT9iss0If3yiSqDpqN_8-189" value="内部管理员" style="swimlane;html=1;startSize=20;" vertex="1" parent="IT9iss0If3yiSqDpqN_8-109">
          <mxGeometry x="190" y="20" width="160" height="990" as="geometry" />
        </mxCell>
        <mxCell id="IT9iss0If3yiSqDpqN_8-228" value="维护LMS-总代信息&lt;br&gt;（总代库存多对关系，地址，库存管理人员等基础信息）" style="rounded=1;whiteSpace=wrap;html=1;absoluteArcSize=1;arcSize=14;strokeWidth=2;" vertex="1" parent="IT9iss0If3yiSqDpqN_8-189">
          <mxGeometry x="10" y="210" width="150" height="90" as="geometry" />
        </mxCell>
        <mxCell id="IT9iss0If3yiSqDpqN_8-212" style="edgeStyle=orthogonalEdgeStyle;rounded=0;orthogonalLoop=1;jettySize=auto;html=1;entryX=0;entryY=0.5;entryDx=0;entryDy=0;" edge="1" parent="1" source="IT9iss0If3yiSqDpqN_8-206" target="IT9iss0If3yiSqDpqN_8-211">
          <mxGeometry relative="1" as="geometry" />
        </mxCell>
        <mxCell id="IT9iss0If3yiSqDpqN_8-216" style="edgeStyle=orthogonalEdgeStyle;rounded=0;orthogonalLoop=1;jettySize=auto;html=1;entryX=0.5;entryY=0;entryDx=0;entryDy=0;entryPerimeter=0;" edge="1" parent="1" source="IT9iss0If3yiSqDpqN_8-205" target="IT9iss0If3yiSqDpqN_8-214">
          <mxGeometry relative="1" as="geometry">
            <Array as="points">
              <mxPoint x="180" y="490" />
              <mxPoint x="1145" y="490" />
            </Array>
          </mxGeometry>
        </mxCell>
        <mxCell id="IT9iss0If3yiSqDpqN_8-254" value="CDIP" style="swimlane;html=1;childLayout=stackLayout;startSize=20;rounded=0;shadow=0;comic=0;labelBackgroundColor=none;strokeWidth=1;fontFamily=Verdana;fontSize=12;align=center;fillColor=#ffe6cc;strokeColor=#d79b00;" vertex="1" parent="1">
          <mxGeometry x="1390" y="20" width="190" height="1010" as="geometry" />
        </mxCell>
        <mxCell id="IT9iss0If3yiSqDpqN_8-264" value="PMS将借货相关信息推送到CDIP进行成本计算等，CDIP计算完后回推结果到PMS展示。" style="whiteSpace=wrap;html=1;" vertex="1" parent="1">
          <mxGeometry x="1430" y="280" width="120" height="160" as="geometry" />
        </mxCell>
        <mxCell id="IT9iss0If3yiSqDpqN_8-267" value="" style="endArrow=none;html=1;exitX=1.075;exitY=-0.001;exitDx=0;exitDy=0;exitPerimeter=0;dashed=1;" edge="1" parent="1">
          <mxGeometry width="50" height="50" relative="1" as="geometry">
            <mxPoint x="43" y="599.393" as="sourcePoint" />
            <mxPoint x="1230" y="602" as="targetPoint" />
          </mxGeometry>
        </mxCell>
        <mxCell id="IT9iss0If3yiSqDpqN_8-270" value="" style="shape=table;html=1;whiteSpace=wrap;startSize=0;container=1;collapsible=0;childLayout=tableLayout;" vertex="1" parent="1">
          <mxGeometry y="20" width="40" height="580" as="geometry" />
        </mxCell>
        <mxCell id="IT9iss0If3yiSqDpqN_8-271" value="" style="shape=partialRectangle;html=1;whiteSpace=wrap;collapsible=0;dropTarget=0;pointerEvents=0;fillColor=none;top=0;left=0;bottom=0;right=0;points=[[0,0.5],[1,0.5]];portConstraint=eastwest;" vertex="1" parent="IT9iss0If3yiSqDpqN_8-270">
          <mxGeometry width="40" height="580" as="geometry" />
        </mxCell>
        <mxCell id="IT9iss0If3yiSqDpqN_8-272" value="借货" style="shape=partialRectangle;html=1;whiteSpace=wrap;connectable=0;overflow=hidden;fillColor=none;top=0;left=0;bottom=0;right=0;" vertex="1" parent="IT9iss0If3yiSqDpqN_8-271">
          <mxGeometry width="40" height="580" as="geometry" />
        </mxCell>
        <mxCell id="IT9iss0If3yiSqDpqN_8-273" value="" style="shape=table;html=1;whiteSpace=wrap;startSize=0;container=1;collapsible=0;childLayout=tableLayout;" vertex="1" parent="1">
          <mxGeometry y="600" width="40" height="170" as="geometry" />
        </mxCell>
        <mxCell id="IT9iss0If3yiSqDpqN_8-274" value="" style="shape=partialRectangle;html=1;whiteSpace=wrap;collapsible=0;dropTarget=0;pointerEvents=0;fillColor=none;top=0;left=0;bottom=0;right=0;points=[[0,0.5],[1,0.5]];portConstraint=eastwest;" vertex="1" parent="IT9iss0If3yiSqDpqN_8-273">
          <mxGeometry width="40" height="170" as="geometry" />
        </mxCell>
        <mxCell id="IT9iss0If3yiSqDpqN_8-275" value="续借" style="shape=partialRectangle;html=1;whiteSpace=wrap;connectable=0;overflow=hidden;fillColor=none;top=0;left=0;bottom=0;right=0;" vertex="1" parent="IT9iss0If3yiSqDpqN_8-274">
          <mxGeometry width="40" height="170" as="geometry" />
        </mxCell>
        <mxCell id="IT9iss0If3yiSqDpqN_8-276" value="" style="shape=table;html=1;whiteSpace=wrap;startSize=0;container=1;collapsible=0;childLayout=tableLayout;" vertex="1" parent="1">
          <mxGeometry y="770" width="40" height="130" as="geometry" />
        </mxCell>
        <mxCell id="IT9iss0If3yiSqDpqN_8-277" value="" style="shape=partialRectangle;html=1;whiteSpace=wrap;collapsible=0;dropTarget=0;pointerEvents=0;fillColor=none;top=0;left=0;bottom=0;right=0;points=[[0,0.5],[1,0.5]];portConstraint=eastwest;" vertex="1" parent="IT9iss0If3yiSqDpqN_8-276">
          <mxGeometry width="40" height="130" as="geometry" />
        </mxCell>
        <mxCell id="IT9iss0If3yiSqDpqN_8-278" value="退货" style="shape=partialRectangle;html=1;whiteSpace=wrap;connectable=0;overflow=hidden;fillColor=none;top=0;left=0;bottom=0;right=0;" vertex="1" parent="IT9iss0If3yiSqDpqN_8-277">
          <mxGeometry width="40" height="130" as="geometry" />
        </mxCell>
        <mxCell id="IT9iss0If3yiSqDpqN_8-280" value="" style="shape=table;html=1;whiteSpace=wrap;startSize=0;container=1;collapsible=0;childLayout=tableLayout;" vertex="1" parent="1">
          <mxGeometry y="900" width="40" height="130" as="geometry" />
        </mxCell>
        <mxCell id="IT9iss0If3yiSqDpqN_8-281" value="" style="shape=partialRectangle;html=1;whiteSpace=wrap;collapsible=0;dropTarget=0;pointerEvents=0;fillColor=none;top=0;left=0;bottom=0;right=0;points=[[0,0.5],[1,0.5]];portConstraint=eastwest;" vertex="1" parent="IT9iss0If3yiSqDpqN_8-280">
          <mxGeometry width="40" height="130" as="geometry" />
        </mxCell>
        <mxCell id="IT9iss0If3yiSqDpqN_8-282" value="核销" style="shape=partialRectangle;html=1;whiteSpace=wrap;connectable=0;overflow=hidden;fillColor=none;top=0;left=0;bottom=0;right=0;" vertex="1" parent="IT9iss0If3yiSqDpqN_8-281">
          <mxGeometry width="40" height="130" as="geometry" />
        </mxCell>
        <mxCell id="IT9iss0If3yiSqDpqN_8-283" value="" style="endArrow=none;html=1;exitX=0.975;exitY=-0.023;exitDx=0;exitDy=0;exitPerimeter=0;dashed=1;" edge="1" parent="1" source="IT9iss0If3yiSqDpqN_8-277">
          <mxGeometry width="50" height="50" relative="1" as="geometry">
            <mxPoint x="50" y="770" as="sourcePoint" />
            <mxPoint x="1230" y="770" as="targetPoint" />
          </mxGeometry>
        </mxCell>
        <mxCell id="IT9iss0If3yiSqDpqN_8-291" style="edgeStyle=orthogonalEdgeStyle;rounded=0;orthogonalLoop=1;jettySize=auto;html=1;" edge="1" parent="1" source="IT9iss0If3yiSqDpqN_8-289" target="IT9iss0If3yiSqDpqN_8-290">
          <mxGeometry relative="1" as="geometry" />
        </mxCell>
      </root>
    </mxGraphModel>
  </diagram>
</mxfile>
